# xmcd
#
# Track frame offsets:
#	150
#	20066
#	42243
#	63260
#	82188
#	120614
#	154100
#	206111
#	239578
#
# Disc length: 4133 seconds
#
# Revision: 1
# Processed by: cddbd v1.5.2PL0 Copyright (c) Steve Scherf et al.
# Submitted via: audiograbber 1.83.01
#
DISCID=7d102309
DTITLE=Grateful Dead - 70-04-12  Fillmore West, San Francisco CA
DYEAR=1900
DGENRE=
TTITLE0=Candyman
TTITLE1=Deep Elem Blues
TTITLE2=Cumberland Blues
TTITLE3=Dire Wolf
TTITLE4=Black Peter
TTITLE5=Uncle John's Band
TTITLE6=Dancing In The Streets
TTITLE7=It's A Man's World
TTITLE8=Viola Lee Blues > Feedback
EXTD=
EXTT0=
EXTT1=
EXTT2=
EXTT3=
EXTT4=
EXTT5=
EXTT6=
EXTT7=
EXTT8=
PLAYORDER=
